<mxfile host="app.diagrams.net" modified="2023-10-10T07:43:34.830Z" agent="Mozilla/5.0 (Windows NT 10.0; Win64; x64) AppleWebKit/537.36 (KHTML, like Gecko) Chrome/117.0.0.0 Safari/537.36 Edg/117.0.2045.60" etag="EOVsd0jnZa6lQXSd54CU" version="22.0.4" type="github">
  <diagram id="C5RBs43oDa-KdzZeNtuy" name="Page-1">
    <mxGraphModel dx="1041" dy="582" grid="1" gridSize="10" guides="1" tooltips="1" connect="1" arrows="1" fold="1" page="1" pageScale="1" pageWidth="827" pageHeight="1169" math="0" shadow="0">
      <root>
        <mxCell id="WIyWlLk6GJQsqaUBKTNV-0" />
        <mxCell id="WIyWlLk6GJQsqaUBKTNV-1" parent="WIyWlLk6GJQsqaUBKTNV-0" />
        <mxCell id="dVH3gAxBWPirgTbV43Bm-0" value="getBean" style="rounded=1;whiteSpace=wrap;html=1;" vertex="1" parent="WIyWlLk6GJQsqaUBKTNV-1">
          <mxGeometry x="40" y="80" width="100" height="30" as="geometry" />
        </mxCell>
        <mxCell id="dVH3gAxBWPirgTbV43Bm-1" value="AbstractBeanFactory&lt;br&gt;doGetBean" style="rounded=1;whiteSpace=wrap;html=1;" vertex="1" parent="WIyWlLk6GJQsqaUBKTNV-1">
          <mxGeometry x="140" y="75" width="210" height="40" as="geometry" />
        </mxCell>
        <mxCell id="dVH3gAxBWPirgTbV43Bm-2" value="getSingleton(beanName)" style="rounded=1;whiteSpace=wrap;html=1;" vertex="1" parent="WIyWlLk6GJQsqaUBKTNV-1">
          <mxGeometry x="410" y="75" width="180" height="30" as="geometry" />
        </mxCell>
        <mxCell id="dVH3gAxBWPirgTbV43Bm-3" value="注意，doGetBean中有两个getSingleton重载，第一个是从三个缓存中获取" style="text;html=1;strokeColor=none;fillColor=none;align=center;verticalAlign=middle;whiteSpace=wrap;rounded=0;" vertex="1" parent="WIyWlLk6GJQsqaUBKTNV-1">
          <mxGeometry x="470" width="140" height="100" as="geometry" />
        </mxCell>
        <mxCell id="dVH3gAxBWPirgTbV43Bm-4" value="" style="endArrow=classic;html=1;rounded=0;exitX=1;exitY=0.5;exitDx=0;exitDy=0;entryX=0;entryY=0.5;entryDx=0;entryDy=0;" edge="1" parent="WIyWlLk6GJQsqaUBKTNV-1" source="dVH3gAxBWPirgTbV43Bm-1" target="dVH3gAxBWPirgTbV43Bm-2">
          <mxGeometry width="50" height="50" relative="1" as="geometry">
            <mxPoint x="390" y="330" as="sourcePoint" />
            <mxPoint x="440" y="280" as="targetPoint" />
          </mxGeometry>
        </mxCell>
        <mxCell id="dVH3gAxBWPirgTbV43Bm-6" value="" style="endArrow=classic;html=1;rounded=0;exitX=0.5;exitY=1;exitDx=0;exitDy=0;" edge="1" parent="WIyWlLk6GJQsqaUBKTNV-1" source="dVH3gAxBWPirgTbV43Bm-2">
          <mxGeometry width="50" height="50" relative="1" as="geometry">
            <mxPoint x="350" y="275" as="sourcePoint" />
            <mxPoint x="500" y="165" as="targetPoint" />
          </mxGeometry>
        </mxCell>
        <mxCell id="dVH3gAxBWPirgTbV43Bm-7" value="没拿到" style="edgeLabel;html=1;align=center;verticalAlign=middle;resizable=0;points=[];" vertex="1" connectable="0" parent="dVH3gAxBWPirgTbV43Bm-6">
          <mxGeometry x="-0.2267" y="-2" relative="1" as="geometry">
            <mxPoint as="offset" />
          </mxGeometry>
        </mxCell>
        <mxCell id="dVH3gAxBWPirgTbV43Bm-8" value="在父Facotry找&lt;br&gt;检查Dependson&lt;br&gt;....." style="rounded=1;whiteSpace=wrap;html=1;" vertex="1" parent="WIyWlLk6GJQsqaUBKTNV-1">
          <mxGeometry x="440" y="165" width="120" height="60" as="geometry" />
        </mxCell>
        <mxCell id="dVH3gAxBWPirgTbV43Bm-9" value="" style="endArrow=classic;html=1;rounded=0;exitX=0.5;exitY=1;exitDx=0;exitDy=0;" edge="1" parent="WIyWlLk6GJQsqaUBKTNV-1" source="dVH3gAxBWPirgTbV43Bm-8">
          <mxGeometry width="50" height="50" relative="1" as="geometry">
            <mxPoint x="499.5" y="235" as="sourcePoint" />
            <mxPoint x="499.5" y="295" as="targetPoint" />
          </mxGeometry>
        </mxCell>
        <mxCell id="dVH3gAxBWPirgTbV43Bm-10" value="没拿到" style="edgeLabel;html=1;align=center;verticalAlign=middle;resizable=0;points=[];" vertex="1" connectable="0" parent="dVH3gAxBWPirgTbV43Bm-9">
          <mxGeometry x="-0.2267" y="-2" relative="1" as="geometry">
            <mxPoint x="3" y="7" as="offset" />
          </mxGeometry>
        </mxCell>
        <mxCell id="dVH3gAxBWPirgTbV43Bm-14" value="" style="edgeStyle=orthogonalEdgeStyle;rounded=0;orthogonalLoop=1;jettySize=auto;html=1;" edge="1" parent="WIyWlLk6GJQsqaUBKTNV-1" source="dVH3gAxBWPirgTbV43Bm-11" target="dVH3gAxBWPirgTbV43Bm-13">
          <mxGeometry relative="1" as="geometry" />
        </mxCell>
        <mxCell id="dVH3gAxBWPirgTbV43Bm-11" value="getsingleton(beanName, ObjectFactory)" style="rounded=1;whiteSpace=wrap;html=1;" vertex="1" parent="WIyWlLk6GJQsqaUBKTNV-1">
          <mxGeometry x="380" y="295" width="250" height="60" as="geometry" />
        </mxCell>
        <mxCell id="dVH3gAxBWPirgTbV43Bm-12" value="第二个参数是函数接口，可以看成回调函数createBean()，会在getSingleton内部调用" style="text;html=1;strokeColor=none;fillColor=none;align=center;verticalAlign=middle;whiteSpace=wrap;rounded=0;" vertex="1" parent="WIyWlLk6GJQsqaUBKTNV-1">
          <mxGeometry x="640" y="275" width="140" height="80" as="geometry" />
        </mxCell>
        <mxCell id="dVH3gAxBWPirgTbV43Bm-17" value="" style="edgeStyle=orthogonalEdgeStyle;rounded=0;orthogonalLoop=1;jettySize=auto;html=1;" edge="1" parent="WIyWlLk6GJQsqaUBKTNV-1" source="dVH3gAxBWPirgTbV43Bm-13" target="dVH3gAxBWPirgTbV43Bm-16">
          <mxGeometry relative="1" as="geometry" />
        </mxCell>
        <mxCell id="dVH3gAxBWPirgTbV43Bm-13" value="ObjectFactory.getObject()" style="whiteSpace=wrap;html=1;rounded=1;" vertex="1" parent="WIyWlLk6GJQsqaUBKTNV-1">
          <mxGeometry x="407.5" y="395" width="195" height="60" as="geometry" />
        </mxCell>
        <mxCell id="dVH3gAxBWPirgTbV43Bm-15" value="其实就是调用createBean(),此函数以及之后的调用会根据情况选择创建对象，比如构造函数，动态代理，如果这个类是FactoryBean，那返回的就是FactoryBean对象，普通bean就是普通对象（也可能是对应的代理对象）" style="text;html=1;strokeColor=none;fillColor=none;align=center;verticalAlign=middle;whiteSpace=wrap;rounded=0;" vertex="1" parent="WIyWlLk6GJQsqaUBKTNV-1">
          <mxGeometry x="605" y="375" width="210" height="110" as="geometry" />
        </mxCell>
        <mxCell id="dVH3gAxBWPirgTbV43Bm-20" value="" style="edgeStyle=orthogonalEdgeStyle;rounded=0;orthogonalLoop=1;jettySize=auto;html=1;" edge="1" parent="WIyWlLk6GJQsqaUBKTNV-1" source="dVH3gAxBWPirgTbV43Bm-16" target="dVH3gAxBWPirgTbV43Bm-19">
          <mxGeometry relative="1" as="geometry" />
        </mxCell>
        <mxCell id="dVH3gAxBWPirgTbV43Bm-16" value="&lt;div style=&quot;background-color:#f1fffe;color:#005761&quot;&gt;&lt;pre style=&quot;font-family:&#39;JetBrains Mono&#39;,monospace;font-size:11.3pt;&quot;&gt;addSingletonFactory()&lt;/pre&gt;&lt;/div&gt;" style="whiteSpace=wrap;html=1;rounded=1;" vertex="1" parent="WIyWlLk6GJQsqaUBKTNV-1">
          <mxGeometry x="400" y="495" width="210" height="60" as="geometry" />
        </mxCell>
        <mxCell id="dVH3gAxBWPirgTbV43Bm-18" value="把对象放到Factory缓存中(其实是一个函数接口)，注意，此处对象可能是FactoryBean，也可能是普通Bean，如果一个bean是由他的FactoryBean创建的，那么显然，此时他本身还没被创建" style="text;html=1;strokeColor=none;fillColor=none;align=center;verticalAlign=middle;whiteSpace=wrap;rounded=0;" vertex="1" parent="WIyWlLk6GJQsqaUBKTNV-1">
          <mxGeometry x="620" y="485" width="200" height="90" as="geometry" />
        </mxCell>
        <mxCell id="dVH3gAxBWPirgTbV43Bm-19" value="populate" style="whiteSpace=wrap;html=1;rounded=1;" vertex="1" parent="WIyWlLk6GJQsqaUBKTNV-1">
          <mxGeometry x="445" y="615" width="120" height="60" as="geometry" />
        </mxCell>
        <mxCell id="dVH3gAxBWPirgTbV43Bm-21" value="依赖注入，关键就在注入的时候会循环依赖。&lt;br&gt;&lt;div style=&quot;&quot;&gt;&lt;span style=&quot;background-color: initial;&quot;&gt;例如A,B循环依赖，那么A注入B的时候，创建B的过程中B也要注入A会getBean(&quot;A&quot;)，此时：&lt;/span&gt;&lt;/div&gt;1.如果A是由FactoryBean创建的，那么执行到第一次getSingleton的时候会调用里面的工厂缓存，用FactoryBean创建A对象，放到Early缓存中&lt;br&gt;2.若A不是FactoryBean创建，那么会直接从Factory缓存中拿到A对象&lt;br&gt;注入A的B会被放到singletonObjecs缓存&lt;br&gt;而A被放到Early缓存，等待递归返回之后把B注入给他之后，他就会被放到singletonObjects缓存中" style="text;html=1;strokeColor=none;fillColor=none;align=left;verticalAlign=middle;whiteSpace=wrap;rounded=0;" vertex="1" parent="WIyWlLk6GJQsqaUBKTNV-1">
          <mxGeometry x="570" y="600" width="260" height="170" as="geometry" />
        </mxCell>
      </root>
    </mxGraphModel>
  </diagram>
</mxfile>
